<svg xmlns="http://www.w3.org/2000/svg" width="483.443" height="40.842" viewBox="0 0 483.443 40.842"><g transform="translate(-199.768 -323.276)"><path d="M216.661,347.677h8.183l-3.93-10.937h-.159Zm262.1.189V338.98c0-5.49-1.754-6.622-5.734-6.622h-5.057V355.1h5.057c4.2,0,5.734-2.772,5.734-7.237m12.705-.167c0,11.141-3.6,16.419-15,16.419h-20.78a1.418,1.418,0,0,1-1.418-1.419V324.76a1.415,1.415,0,0,1,1.416-1.415H474.99c11.4,0,16.472,4.245,16.472,15.818Zm-47.443,16.419H430.477a1.42,1.42,0,0,1-1.232-.713L420,347.289l-.163.106-.049,15.3a1.426,1.426,0,0,1-1.425,1.422H406.448a1.41,1.41,0,0,1-1.41-1.41V324.769a1.423,1.423,0,0,1,1.424-1.424h13.566a1.408,1.408,0,0,1,1.265.787l9.189,18.654h.243l-.025-18.029a1.41,1.41,0,0,1,1.41-1.412h11.922a1.408,1.408,0,0,1,1.409,1.408V362.7A1.422,1.422,0,0,1,444.019,364.118Zm-47.791-14.536c0,11.354-5.524,14.536-18.454,14.536-17.634,0-19.51-4.321-19.51-14.536V324.7a1.428,1.428,0,0,1,1.428-1.428H370.96a1.43,1.43,0,0,1,1.43,1.429v25.341c0,1.951.88,3.644,4.894,3.644,3.7,0,4.818-2.178,4.818-3.918V324.691a1.415,1.415,0,0,1,1.416-1.415H394.8a1.423,1.423,0,0,1,1.423,1.423Zm-65.606-26.237h17.35a1.407,1.407,0,0,1,1.407,1.407V362.7a1.414,1.414,0,0,1-1.414,1.414H337.329a1.426,1.426,0,0,1-1.427-1.432l.1-20.531h-.16l-8.261,21.059a1.425,1.425,0,0,1-1.326.9h-8.56a1.426,1.426,0,0,1-1.333-.918l-8.022-21.045h-.16l-.053,20.543a1.423,1.423,0,0,1-1.423,1.42H296.123a1.409,1.409,0,0,1-1.408-1.408V324.759a1.415,1.415,0,0,1,1.414-1.414h17.479a1.433,1.433,0,0,1,1.353.957l6.965,19.79h.159l7.211-19.819A1.411,1.411,0,0,1,330.622,323.345ZM285.29,349.582c0,11.354-5.524,14.536-18.454,14.536-17.63,0-19.509-4.321-19.509-14.536V324.688a1.412,1.412,0,0,1,1.412-1.412h11.3a1.409,1.409,0,0,1,1.409,1.41v25.36c0,1.951.885,3.644,4.895,3.644,3.694,0,4.818-2.178,4.818-3.918V324.7a1.427,1.427,0,0,1,1.427-1.427h11.289a1.409,1.409,0,0,1,1.409,1.41Zm-44.734,14.536H229.328a1.423,1.423,0,0,1-1.38-1.074l-1.737-6.862H215.134l-1.447,6.812a1.418,1.418,0,0,1-1.387,1.124H201.188a1.418,1.418,0,0,1-1.35-1.854l12.255-37.956a1.39,1.39,0,0,1,1.324-.963h14.964a1.423,1.423,0,0,1,1.356.988l12.172,37.93A1.421,1.421,0,0,1,240.556,364.118Z" fill="#001a32"/><path d="M644.315,324.825h-1.589a1.413,1.413,0,0,0-1.414,1.412v26.657c0,7.283-3.167,7.328-11.018,7.328-9.517,0-11.027-.988-11.027-7.328v-26.65a1.419,1.419,0,0,0-1.419-1.419h-1.582a1.412,1.412,0,0,0-1.412,1.411v26.658c0,11.019,6.912,11.224,15.44,11.224,9.2,0,15.438-.782,15.438-11.224V326.242A1.416,1.416,0,0,0,644.315,324.825Z" fill="#001a32"/><path d="M531.975,344.319h-14.01a1.411,1.411,0,0,0-1.411,1.411v1.056a1.422,1.422,0,0,0,1.422,1.422h11.009v4.837c0,6.243-1.663,7.177-9.409,7.177h-4.161c-7.283,0-9.774-1.663-9.774-9.1V338.6c0-8.537,1.246-10.2,9.668-10.2h5.46c6.341,0,8.111,1.094,8.111,5.568v.828a1.412,1.412,0,0,0,1.412,1.412h1.584a1.416,1.416,0,0,0,1.416-1.415v-1.608c0-6.288-4.511-8.672-10.4-8.672H512.658c-6.66,0-11.43,3.007-11.43,13.563v12.06c0,12.059,4.565,13.981,14.961,13.981h4.268c8.84,0,12.941-2.18,12.941-11.331v-7.044A1.424,1.424,0,0,0,531.975,344.319Z" fill="#001a32"/><path d="M594.737,324.514h-5.256c-9.72.1-12.673,3.319-12.673,13.092v13.882c0,9.2,3.325,12.63,12.673,12.63h5.256c9.364,0,12.683-3.426,12.683-12.63V337.606C607.42,327.833,604.458,324.612,594.737,324.514Zm8.27,26.974c0,7.746-2.551,8.689-8.27,8.734h-5.256c-5.717-.045-8.262-.988-8.262-8.734V337.606c0-7.586,1.716-9.2,8.262-9.2h5.256c6.554,0,8.27,1.619,8.27,9.2Z" fill="#001a32"/><path d="M673.907,324.825H655.468a1.412,1.412,0,0,0-1.412,1.411v36.159a1.412,1.412,0,0,0,1.412,1.412h1.561a1.432,1.432,0,0,0,1.432-1.432V348.626H673.7c9.454,0,9.508-8.522,9.508-12.007C683.211,329.913,681.441,324.825,673.907,324.825Zm-4,19.9H658.461V328.721h13.525c5.46,0,6.812.987,6.812,8.475C678.8,344.783,675.783,344.729,669.905,344.729Z" fill="#001a32"/><path d="M563.547,346.445v-.106c6.181-.775,6.8-4.83,6.8-10.291,0-8.893-3.683-11.224-12.106-11.224h-16.57a1.412,1.412,0,0,0-1.412,1.411v36.139a1.431,1.431,0,0,0,1.43,1.432h1.573a1.409,1.409,0,0,0,1.409-1.41V348.207h14.193c5.355,0,6.554,2.392,6.554,7.328V362.4a1.409,1.409,0,0,0,1.408,1.409h1.583a1.422,1.422,0,0,0,1.422-1.421v-8.93C569.836,349.247,567.914,346.756,563.547,346.445Zm-5.247-2.126H544.676v-15.6H558.3c6.971,0,7.639,1.868,7.639,6.857C565.939,342.034,565.111,344.115,558.3,344.319Z" fill="#001a32"/></g></svg>